<svg
	xmlns="http://www.w3.org/2000/svg"
	xmlns:xlink="http://www.w3.org/1999/xlink"
	viewBox="0 0 16 16"
	preserveAspectRatio="xMidYMid meet"
	focusable="false"
	role="presentation"
>
	<defs>
		<style>
			symbol        {
				display: none;
				pointer-events: none;
			}
			symbol:target {
				display: block;
				pointer-events: none;
			}
		</style>
	</defs>
	<title>Arrow Right Double</title>
	<path fill-rule="evenodd" d="M3.646 1.646a.5.5 0 0 1 .708 0l6 6a.5.5 0 0 1 0 .708l-6 6a.5.5 0 0 1-.708-.708L9.293 8 3.646 2.354a.5.5 0 0 1 0-.708z"/>
	<path fill-rule="evenodd" d="M7.646 1.646a.5.5 0 0 1 .708 0l6 6a.5.5 0 0 1 0 .708l-6 6a.5.5 0 0 1-.708-.708L13.293 8 7.646 2.354a.5.5 0 0 1 0-.708z"/>
</svg>
