<svg
	xmlns="http://www.w3.org/2000/svg"
	xmlns:xlink="http://www.w3.org/1999/xlink"
	viewBox="0 0 16 16"
	preserveAspectRatio="xMidYMid meet"
	focusable="false"
	role="presentation"
>
	<defs>
		<style>
			symbol        {
				display: none;
				pointer-events: none;
			}
			symbol:target {
				display: block;
				pointer-events: none;
			}
		</style>
	</defs>
	<title>DNS</title>
	<path d="M7.293.707A1 1 0 0 0 7 1.414V4H2a1 1 0 0 0-1 1v4a1 1 0 0 0 1 1h5v6h2v-6h3.532a1 1 0 0 0 .768-.36l1.933-2.32a.5.5 0 0 0 0-.64L13.3 4.36a1 1 0 0 0-.768-.36H9V1.414A1 1 0 0 0 7.293.707z"/>
</svg>
