<svg
	xmlns="http://www.w3.org/2000/svg"
	xmlns:xlink="http://www.w3.org/1999/xlink"
	viewBox="0 0 16 16"
	preserveAspectRatio="xMidYMid meet"
	focusable="false"
	role="presentation"
>
	<defs>
		<style>
			symbol        {
				display: none;
				pointer-events: none;
			}
			symbol:target {
				display: block;
				pointer-events: none;
			}
		</style>
	</defs>
	<title>DNS</title>
	<path d="M7 16h2V6h5a1 1 0 0 0 .8-.4l.975-1.3a.5.5 0 0 0 0-.6L14.8 2.4A1 1 0 0 0 14 2H9v-.586a1 1 0 0 0-2 0V7H2a1 1 0 0 0-.8.4L.225 8.7a.5.5 0 0 0 0 .6l.975 1.3a1 1 0 0 0 .8.4h5v5z"/>
</svg>
