<svg
	xmlns="http://www.w3.org/2000/svg"
	xmlns:xlink="http://www.w3.org/1999/xlink"
	viewBox="0 0 16 16"
	preserveAspectRatio="xMidYMid meet"
	focusable="false"
	role="presentation"
>
	<defs>
		<style>
			symbol        {
				display: none;
				pointer-events: none;
			}
			symbol:target {
				display: block;
				pointer-events: none;
			}
		</style>
	</defs>
	<title>Mail</title>
	<path d="M.05 3.555A2 2 0 0 1 2 2h12a2 2 0 0 1 1.95 1.555L8 8.414.05 3.555ZM0 4.697v7.104l5.803-3.558L0 4.697ZM6.761 8.83l-6.57 4.027A2 2 0 0 0 2 14h12a2 2 0 0 0 1.808-1.144l-6.57-4.027L8 9.586l-1.239-.757Zm3.436-.586L16 11.801V4.697l-5.803 3.546Z"/>
</svg>
