<svg
	xmlns="http://www.w3.org/2000/svg"
	xmlns:xlink="http://www.w3.org/1999/xlink"
	viewBox="0 0 16 16"
	preserveAspectRatio="xMidYMid meet"
	focusable="false"
	role="presentation"
>
	<defs>
		<style>
			symbol        {
				display: none;
				pointer-events: none;
			}
			symbol:target {
				display: block;
				pointer-events: none;
			}
		</style>
	</defs>
	<title>User delete</title>
	<path fill-rule="evenodd" d="M11 7.5a.5.5 0 0 1 .5-.5h4a.5.5 0 0 1 0 1h-4a.5.5 0 0 1-.5-.5z"/>
	<path d="M1 14s-1 0-1-1 1-4 6-4 6 3 6 4-1 1-1 1H1zm5-6a3 3 0 1 0 0-6 3 3 0 0 0 0 6z"/>
</svg>
